<svg xmlns="http://www.w3.org/2000/svg" viewBox="0 0 500 202" width="500" height="202"><path d="M.0252.3194q82.4184,0,164.8369-.0252.05,100.52.0168,201.0306Q82.4478,201.287,0,201.308.1008,100.8137.0252.3194ZM11.9582,12.244q0,88.6032-.0168,177.1982,70.5274.025,141.0632.0167-.0252-88.6158-.0168-177.2233Q82.4731,12.2986,11.9582,12.244Z" fill="#ffea4e"/><path d="M62.2683,40.7707c10.2535-3.7453,21.33-2.1666,32.0034-2.46q-.0378,2.0784-.05,4.1568c-10.0184.4619-20.3894-1.3184-30.0719,1.9986A38.13,38.13,0,0,0,40.6025,67.937Q35.06,84.665,29.5176,101.3931a44.5671,44.5671,0,0,0-1.9146,6.6257c3.7537.0252,7.5242-.1427,11.278.2352.6466,6.5753-.0672,13.201.3863,19.7848.5542,5.0385,5.03,9.4473,10.1779,9.4893,9.96.0923,19.9275.0252,29.8955.0252,0,1.394.0084,2.78.0252,4.1736q-5.2275-.0126-10.455,0c.042,6.3906-.0336,12.7812.05,19.1717q23.2026-.0378,46.4136.0084c.05-7.0456-.0672-14.0912.042-21.1368-.1764-2.007,2.2-2.3429,3.7033-2.3345,9.2878-.6046,17.24-8.9519,17.3243-18.2732.1008-11.48.0168-22.9591.042-34.43,1.3772-.0084,2.7544-.0252,4.14-.0336-.1595,12.7056.37,25.4364-.2939,38.1168a24.0838,24.0838,0,0,1-16.031,17.8786,46.059,46.059,0,0,0-4.7783,1.0329c.0252,7.44.1512,14.8806-.0672,22.3125-.4114.2519-1.226.7473-1.6375.9909q-22.4091-.0126-44.8265,0c-2.7208-.0588-5.5256.3443-8.12-.6718-.1595-7.5327-.0588-15.0654-.0588-22.598-5.9707-.1428-11.9414.1511-17.9037-.2184-5.3577-1.4276-10.1779-5.5424-11.3284-11.11-1.1589-6.0127-.3443-12.1766-.5878-18.2564-3.9553.0167-7.9106.0419-11.8659-.05a7.3254,7.3254,0,0,1-.0335-4.392C27.41,94.5826,31.8018,81.4488,36.1266,68.3065A42.2614,42.2614,0,0,1,62.2683,40.7707Z" fill="#ffea4e"/><path d="M90.0981,58.1454c.8985-8.3893,6.3989-16.4762,14.7378-18.8527,9.7832-3.3758,21.4475,1.9483,25.3272,11.53,4.6271.8986,9.2794,3.04,11.891,7.138a16.8525,16.8525,0,0,1,2.5865,12.059c-1.4612,4.7531-4.6523,9.1114-9.313,11.1017-2.2841.9909-4.7866,1.2008-7.1967,1.6711-.042-1.3856-.084-2.7712-.1176-4.1484,3.1911-.4451,6.6257-1.0665,8.9267-3.5438a11.1636,11.1636,0,0,0,2.4017-13.6294,12.0593,12.0593,0,0,0-10.1275-6.3738c-1.6376.0084-2.3514-1.5871-2.9476-2.8552a16.36,16.36,0,0,0-15.4768-9.75,15.9861,15.9861,0,0,0-14.192,8.2465c-1.8055,3.0567-2.1414,6.6593-2.2757,10.1275-2.4689,1.0329-5.3661,1.7467-6.9365,4.1148a8.4346,8.4346,0,0,0,2.1078,11.8659C91.4585,78.2661,93.9442,78.4,96.27,78.61c-.05,1.4024-.1092,2.8048-.1847,4.2072-4.6859-.3527-9.7833-1.7215-12.3445-6.0463C79.1224,70.4143,82.4982,60.3036,90.0981,58.1454Z" fill="#ffea4e"/><path d="M105.8688,78.56c3.8965-3.9133,7.751-7.877,11.7315-11.7063,1.52-.2939,2.2673,1.5368,3.359,2.2758-2.57,2.8635-5.3493,5.5172-8.1121,8.2044-.0756.2939-.2435.89-.3275,1.1925a80.0519,80.0519,0,0,1,8.75.1847q.1008,1.4991.126,2.998c-4.2744,3.9553-8.23,8.2548-12.4369,12.2773-1.57.5039-2.3261-1.4612-3.401-2.217a120.6093,120.6093,0,0,1,8.977-8.9686c-3.1575-.1512-6.4074.2435-9.4641-.7726C105.1886,80.8525,104.7939,79.4,105.8688,78.56Z" fill="#ffea4e"/><path d="M41.3,79.5089c1.3856-.0168,2.78-.0168,4.1736-.0168.4115,2.746,2.6956,5.5257,5.702,5.1813,2.788-.0083,4.8034-2.494,5.0218-5.1309,1.4024-.0252,2.8132-.042,4.2156-.05-.126,4.8958-4.224,9.3634-9.2206,9.355C45.9938,89.2166,41.543,84.5559,41.3,79.5089Z" fill="#ffea4e"/><path d="M185.94,92.3405c5.6516-2.2506,13.411-1.6628,17.1815,3.6445,3.0819,4.3416,2.343,9.9092,2.4353,14.9226-2.8132,0-5.6348,0-8.44-.0084-.1343-3.0735.42-6.2646-.4618-9.2542-1.7384-4.098-8.8259-2.7376-8.6664,1.8643-.2771,9.8-.0084,19.6252-.126,29.4337.05,2.2169-.2351,4.6942,1.0833,6.6257,2.1246,2.5529,7.3648,1.8307,7.9778-1.7215.4367-3.46.1008-6.97.1847-10.4467,2.8216-.0168,5.6348-.0168,8.4564-.0084-.2687,5.5593.949,11.6643-2.2,16.6441-3.569,5.576-11.446,6.2143-17.19,4.1065-4.7866-1.8223-7.0792-7.096-7.1463-11.9331-.0756-10.5978-.05-21.2039-.0084-31.7933C179.054,99.5876,181.1954,94.2635,185.94,92.3405Z" fill="#ffea4e"/><path d="M216.7174,91.8534c8.1121.0336,16.2242-.0336,24.3363.0336v7.9945c-5.1562.042-10.3123.0168-15.4768.0168q.0126,7.9105.0084,15.8379c4.0812-.0251,8.1624-.0084,12.2521-.0251-.0084,2.7124-.0084,5.4332-.0084,8.1456-4.0813-.0084-8.1625.0168-12.2437-.0252,0,5.5257-.0084,11.0513.0084,16.5853,5.1645.05,10.3542-.2771,15.51.2184-.0588,2.6284-.0588,5.2569-.05,7.8854-8.12.0587-16.2326.0167-24.3531.0251C216.751,129.6511,216.709,110.7481,216.7174,91.8534Z" fill="#ffea4e"/><path d="M267.9009,91.8534c9.145,0,18.2984.0252,27.4518-.0084,0,2.6873,0,5.3745.0168,8.0533-3.0987,0-6.2059,0-9.2962-.0084.0168,16.2242-.0252,32.4484.0168,48.6642q-4.4718,0-8.9267-.0084c.05-16.2074,0-32.4232.0252-48.639-3.1071-.0084-6.2142,0-9.3129-.0168C267.9009,97.2111,267.9009,94.5323,267.9009,91.8534Z" fill="#ffea4e"/><path d="M305.0267,91.8366q12.1556.05,24.3027,0,.0126,4.0436.0084,8.0869c-5.1561-.042-10.3122-.0252-15.4684-.0084q.0126,7.8854,0,15.7876c4.1065.0335,8.2129.0167,12.3193.0084-.0084,2.7124-.0084,5.4332-.0084,8.1456-4.1064,0-8.2044-.0252-12.3109.0252,0,5.4921.0168,10.9841-.0084,16.4762,5.1562.0755,10.3039.0084,15.46.0336.0168,2.7208.0168,5.45.0252,8.1792-8.12-.0336-16.2326-.0168-24.3447-.0168C305.0351,129.6511,305.0015,110.7481,305.0267,91.8366Z" fill="#ffea4e"/><path d="M356.185,91.845c9.2038.0588,18.416-.05,27.62.0588q-.0126,3.98,0,7.9693c-3.1575.0336-6.3066.0252-9.4557.042.0252,16.2074-.0336,32.4232.0252,48.6306-2.9728.0084-5.9371.0084-8.91.0084.0336-16.2158,0-32.44.0252-48.6642-3.1155.0084-6.2226.0084-9.3214.0168C356.1766,97.22,356.1766,94.5323,356.185,91.845Z" fill="#ffea4e"/><path d="M393.2773,91.8366c2.9476.0336,5.8951.0252,8.8511.0252.2939,18.8779.042,37.7725.126,56.6588-2.998.0335-5.9959.0335-8.9939.0419C393.2857,129.6511,393.2521,110.7481,393.2773,91.8366Z" fill="#ffea4e"/><path d="M414.2714,91.8366c3.7537.05,7.5158-.0336,11.278.084,2.8216,11.2612,6.231,22.3713,8.8679,33.6828.5206-11.2444.0671-22.514.2351-33.7668,2.6452.0252,5.3073.0252,7.9609.042q0,28.3294.0084,56.65c-3.0819.0252-6.147.0252-9.2206.0084-2.494-9.3045-5.03-18.6007-7.5326-27.9052a118.666,118.666,0,0,1-3.1323-12.924,63.4058,63.4058,0,0,0-.5375,7.5747c.05,11.0848-.0168,22.1781.042,33.2629-2.662.0084-5.3241.0084-7.9861.0168C414.28,129.6511,414.2462,110.7481,414.2714,91.8366Z" fill="#ffea4e"/><path d="M454.6555,91.8366q12.1682.063,24.3279,0,.0126,4.0309.0084,8.0785c-5.1309-.0252-10.2619-.0168-15.3928-.0084q.05,7.8979-.0084,15.8044c4.09.0167,8.1709.0083,12.26.0083-.0252,2.7125-.0252,5.4249-.0168,8.1373q-6.1092,0-12.2269-.0084c.05,5.5677-.05,11.1353.0672,16.7029,5.0889-.3191,10.1947-.1092,15.292-.1679.0252,2.7292.0252,5.45.0336,8.1792q-12.1807-.0252-24.3615,0C454.6639,129.6511,454.6219,110.74,454.6555,91.8366Z" fill="#ffea4e"/><path d="M366.2454,151.2162c2.4941,0,4.9882,0,7.4823.0168,0,2.1162.1175,4.2492-.0756,6.3654a36.0793,36.0793,0,0,1-3.41,5.4248c-.7893.0084-2.3849.0168-3.1743.0168q1.0456-2.1666,2.1246-4.3247h-2.9643Q366.2412,154.9616,366.2454,151.2162Z" fill="#ffea4e"/><path d="M176.9294,168.3473c5.3409-.0839,10.6818-.0168,16.0227-.042-.0168,1.1169-.0336,2.2422-.042,3.3759-2.007-.0084-4.014-.0168-6.0127-.042q-.0252,14.8764-.0084,29.7528c-1.2428-.0084-2.4857-.0252-3.72-.0252.0588-9.9092.0168-19.8184.0252-29.7276-1.8811.0336-3.7622.0924-5.6348.0084C176.6187,170.8246,177.1478,169.4222,176.9294,168.3473Z" fill="#fcfcfc"/><path d="M201.6436,168.2969c3.8042.26,7.835-.6382,11.4712.7642,3.9721,2.0742,3.359,7.1884,3.2,10.9421a6.3376,6.3376,0,0,1-3.6362,5.3493c6.1975,3.04,2.5445,10.8413,4.2408,16.09-1.2848-.0587-2.5529-.1007-3.8209-.1343-.6634-3.7454-.05-7.5747-.5962-11.32-.8314-3.1659-4.6607-2.746-7.1968-2.7964.0168,4.7278,0,9.4641.0168,14.2-1.2345-.0168-2.4773-.0168-3.7034-.0168C201.6772,190.3491,201.6268,179.323,201.6436,168.2969Zm3.6782,3.3255c-.0168,4.1064-.0084,8.2045-.0084,12.3109,2.4689-.1511,6.0883.5627,7.1632-2.41a23.8972,23.8972,0,0,0,.042-7.4991C211.62,170.8246,207.7907,171.8239,205.3218,171.6224Z" fill="#fcfcfc"/><path d="M226.4082,168.28c4.5347.05,9.0611.0168,13.5874.0252-.0168,1.1253-.0336,2.2422-.042,3.3675q-4.9126-.0126-9.8252-.0084c.0084,3.7537.0336,7.4991-.0252,11.2528,2.704.0168,5.4.0084,8.1037.0084-.0084,1.1085-.0084,2.2254,0,3.3423-2.7041-.0084-5.4-.0168-8.0953,0q.063,5.87-.0084,11.7314c3.3.0252,6.6005.0084,9.9008.0168q-.0126,1.6754,0,3.3507c-4.5347.0168-9.0695-.0084-13.6042.0252C226.4082,190.3575,226.3914,179.3146,226.4082,168.28Z" fill="#fcfcfc"/><path d="M254.9769,168.3053q2.67,0,5.3661-.0084c2.1078,11.0261,4.1988,22.0606,6.3486,33.0783-1.2428,0-2.4773.0084-3.7033.0168-.4535-2.2338-.865-4.4676-1.3185-6.7013q-4.1694.0378-8.322.0084-.6551,3.3505-1.3016,6.7013c-1.15-.0168-2.2926-.0336-3.4347-.042C250.7949,190.3491,252.8523,179.323,254.9769,168.3053Zm2.6117,4.1989c-1.52,6.29-2.5025,12.6972-3.7873,19.0374,2.4689-.0084,4.9378-.0168,7.4151-.05C259.94,185.1762,258.58,178.8779,257.5886,172.5042Z" fill="#fcfcfc"/><path d="M275.7022,168.28c4.8791.05,9.7665.0168,14.6539.0252-.05,1.6628.0756,3.4011-.7138,4.9294-3.6194,8.2465-7.1128,16.5434-10.7406,24.7814q5.6685,0,11.3452-.0084c-.0168,1.1253-.0168,2.2506-.0168,3.3759q-7.57-.0252-15.1325,0a11.022,11.022,0,0,1,.8314-5.0554c3.569-8.2045,7.012-16.4593,10.6146-24.647q-5.4165-.0252-10.833-.0084C275.7022,170.5391,275.7022,169.4054,275.7022,168.28Z" fill="#fcfcfc"/><path d="M313.248,168.2969c1.5536,0,3.1071.0084,4.6691.0336,2.4017,7.9358,5.24,15.7456,7.39,23.7569.529-7.919.0924-15.8715.2351-23.8073,1.0833,0,2.1666.0084,3.2583.0168.0168,11.0345,0,22.069.0084,33.1119-1.2932-.0336-2.5781-.05-3.8629-.0756-2.6117-8.8343-5.8448-17.4923-8.0617-26.4357-.823,8.7755-.4451,17.635-.2939,26.4441-1.1253,0-2.2506.0168-3.3675.0336C313.29,190.3491,313.248,179.323,313.248,168.2969Z" fill="#fcfcfc"/><path d="M343.4962,168.2466c2.7545-.7306,6.0463-.3527,8.1121,1.7719a9.2336,9.2336,0,0,1,2.0742,6.5669c-.0419,5.9119.042,11.8238-.0419,17.7358-.0168,2.9811-1.7551,6.1134-4.7279,7.0036-2.6453.655-5.8028.6046-7.9526-1.2681a8.4483,8.4483,0,0,1-2.4521-6.6425c.0084-5.9035-.0251-11.8154.0168-17.7106C338.4325,172.5125,340.2464,169.0779,343.4962,168.2466Zm.2436,3.72c-1.4864,1.0329-1.604,2.9728-1.6208,4.6187-.0252,5.3325,0,10.665-.0168,15.9975.0336,1.7131.0168,3.7117,1.394,4.9714,2.1918,1.7718,6.2563.5878,6.357-2.4941.1764-6.6929.1092-13.4026.0336-20.0955C349.996,171.9163,346.0827,170.1444,343.74,171.9667Z" fill="#fcfcfc"/><path d="M368.5883,168.3725q2.7083-.0756,5.4333-.1091c2.175,11.0176,4.19,22.0689,6.3906,33.0782-1.2513.0168-2.4857.0336-3.7286.0588-.4283-2.2254-.8649-4.4592-1.2848-6.6845-2.8216-.0084-5.6348-.0168-8.448.0335-.3527,2.2254-.739,4.4424-1.1925,6.651-.8565-.0084-2.5613-.0168-3.4178-.0252C364.4315,190.3743,366.6233,179.3986,368.5883,168.3725Zm2.5193,3.93c-1.1253,6.4242-2.3765,12.8316-3.6278,19.2306q3.6907-.0252,7.3983.0168C373.5933,185.1342,372.426,178.7016,371.1076,172.3026Z" fill="#fcfcfc"/><path d="M389.3808,168.2969c4.5179.4619,10.8414-1.6123,13.6546,3.1743,1.6207,3.8965,1.2512,8.49.5038,12.5545-1.3184,4.4675-6.6005,4.4927-10.3878,4.2492-.0756,4.3667-.0336,8.7335-.0336,13.1-1.26,0-2.5025,0-3.7454.0084C389.3892,190.3575,389.3724,179.323,389.3808,168.2969Zm3.737,3.3423c0,4.4927-.042,8.9855.0336,13.4866,2.3345-.168,5.7691.5458,6.928-2.1414a28.5876,28.5876,0,0,0-.042-9.38C398.8785,170.8582,395.4439,171.8575,393.1178,171.6392Z" fill="#fcfcfc"/><path d="M411.962,168.28q7.9484.063,15.9051,0c-.0084,1.1337-.0168,2.2674-.0084,3.4011-2.0322-.0084-4.056-.0168-6.0883-.0336q-.0126,14.8764,0,29.7528c-1.268-.0252-2.5192-.042-3.77-.0588.0168-9.8924-.0084-19.7848.0168-29.6772-2.0238,0-4.0309.0084-6.0379.0084C411.97,170.5391,411.962,169.4054,411.962,168.28Z" fill="#fcfcfc"/><path d="M436.5083,168.3557c4.5683-.1007,9.145-.0168,13.7217-.0672-.0084,1.1253-.0084,2.2506-.0084,3.3843-3.3087-.0084-6.6173.0084-9.9176-.0252-.0252,3.7621-.0084,7.5243-.0252,11.2864,2.7208-.0084,5.4417-.0168,8.1709.0168v3.2835c-2.7292.0336-5.45.0252-8.1709.0252q.0252,5.87,0,11.7566c3.3171-.0084,6.6341,0,9.96-.0084,0,.84,0,2.5361-.0084,3.3759-4.5767-.0252-9.145.0252-13.7217-.0336Q436.5209,184.8487,436.5083,168.3557Z" fill="#fcfcfc"/><path d="M465.119,168.3473c1.7886-.0336,3.5857-.05,5.3828-.0755,2.1582,11.0176,4.2072,22.06,6.3822,33.07-.9321.0168-2.78.042-3.7033.0588-.4451-2.217-.8734-4.4424-1.2681-6.6677-2.8132-.0252-5.6264-.0336-8.4312.0083-.3947,2.2086-.7978,4.4256-1.226,6.6258-1.1505.0084-2.3094.0084-3.4347.0252C460.92,190.3743,463.0951,179.3734,465.119,168.3473Zm-1.1253,23.1943q3.6782-.0378,7.3815.0084-1.9022-9.5859-3.7034-19.197C466.387,178.7352,465.2617,185.1594,463.9937,191.5416Z" fill="#fcfcfc"/><path d="M486.852,170.5475c2.2674-3.0987,7.012-3.359,10.1191-1.4612,2.9056,2.0071,3.3087,5.9623,2.8888,9.187-.6718,5.92-7.6922,9.3634-6.3906,15.7959-1.1253-.0419-2.2337-.0755-3.3422-.1007a12.2346,12.2346,0,0,1,2.6368-9.0611c2.5529-3.1911,4.5851-7.4654,3.0819-11.5635-.94-2.7124-5.3324-2.8468-6.5333-.2771-.8482,1.8391-.42,3.9469-.5291,5.9119-1.2344,0-2.4689-.0168-3.6865-.042C485.34,176.1151,485.0549,172.9408,486.852,170.5475Z" fill="#fcfcfc"/><path d="M490.1691,196.8069c.89.0252,2.6872.0755,3.5857.1007,0,1.47.0168,2.9476.042,4.4256-1.2176.0168-2.4269.042-3.6361.0672C490.1607,199.872,490.1607,198.3352,490.1691,196.8069Z" fill="#fcfcfc"/></svg>
